HIERARCHY
ROOT Hips
{
  OFFSET 267.745 86.9975 -272.335
  CHANNELS 6 Xposition Yposition Zposition Zrotation Xrotation Yrotation
  JOINT LeftUpLeg
  {
    OFFSET 8.64259 1.95398 -2.38835
    CHANNELS 3 Zrotation Xrotation Yrotation
    JOINT LeftLeg
    {
      OFFSET 43.7702 0 0
      CHANNELS 3 Zrotation Xrotation Yrotation
      JOINT LeftFoot
      {
        OFFSET 40.6238 0 0
        CHANNELS 3 Zrotation Xrotation Yrotation
        JOINT LeftToeBase
        {
          OFFSET 12.7242 0 0
          CHANNELS 3 Zrotation Xrotation Yrotation
          End Site
          {
            OFFSET 0 0 0
          }
        }
      }
    }
  }
  JOINT RightUpLeg
  {
    OFFSET -8.2249 1.95398 -2.59336
    CHANNELS 3 Zrotation Xrotation Yrotation
    JOINT RightLeg
    {
      OFFSET 43.5653 0 0
      CHANNELS 3 Zrotation Xrotation Yrotation
      JOINT RightFoot
      {
        OFFSET 40.6238 0 0
        CHANNELS 3 Zrotation Xrotation Yrotation
        JOINT RightToeBase
        {
          OFFSET 12.7242 0 0
          CHANNELS 3 Zrotation Xrotation Yrotation
          End Site
          {
            OFFSET 0 0 0
          }
        }
      }
    }
  }
  JOINT Spine
  {
    OFFSET 0.165834 0.87714 6.61349
    CHANNELS 3 Zrotation Xrotation Yrotation
    JOINT Spine1
    {
      OFFSET 7.38963 1.71661e-005 0
      CHANNELS 3 Zrotation Xrotation Yrotation
      JOINT Spine2
      {
        OFFSET 11.9445 1.14441e-005 0
        CHANNELS 3 Zrotation Xrotation Yrotation
        JOINT Spine3
        {
          OFFSET 14.7254 4.19617e-005 0
          CHANNELS 3 Zrotation Xrotation Yrotation
          JOINT Spine4
          {
            OFFSET 10.9679 0 0
            CHANNELS 3 Zrotation Xrotation Yrotation
            JOINT RightShoulder
            {
              OFFSET 2.46616 -1.6653 3.69651
              CHANNELS 3 Zrotation Xrotation Yrotation
              JOINT RightArm
              {
                OFFSET 13.0012 0 0
                CHANNELS 3 Zrotation Xrotation Yrotation
                JOINT RightForeArm
                {
                  OFFSET 28.7848 1.52588e-005 0
                  CHANNELS 3 Zrotation Xrotation Yrotation
                  JOINT RightHand
                  {
                    OFFSET 26.5688 1.52588e-005 0
                    CHANNELS 3 Zrotation Xrotation Yrotation
                    End Site
                    {
                      OFFSET 0 0 0
                    }
                  }
                }
              }
            }
            JOINT LeftShoulder
            {
              OFFSET 2.38034 -1.29275 -3.7523
              CHANNELS 3 Zrotation Xrotation Yrotation
              JOINT LeftArm
              {
                OFFSET 16.3182 6.10352e-005 0
                CHANNELS 3 Zrotation Xrotation Yrotation
                JOINT LeftForeArm
                {
                  OFFSET 27.0901 0 0
                  CHANNELS 3 Zrotation Xrotation Yrotation
                  JOINT LeftHand
                  {
                    OFFSET 24.5451 1.52588e-005 0
                    CHANNELS 3 Zrotation Xrotation Yrotation
                    End Site
                    {
                      OFFSET 0 0 0
                    }
                  }
                }
              }
            }
            JOINT Neck
            {
              OFFSET 5.0226 -0.0266342 0
              CHANNELS 3 Zrotation Xrotation Yrotation
              JOINT Head
              {
                OFFSET 6.69364 2.86102e-005 0
                CHANNELS 3 Zrotation Xrotation Yrotation
                End Site
                {
                  OFFSET 0 0 0
                }
              }
            }
          }
        }
      }
    }
  }
}
MOTION
Frames:	7
Frame Time:	0.0416667
-263.886 93.5455 251.847 94.3484 25.5049 90.9906 -170.008 -6.24499 91.8718 -3.63702 8.72126 -1.90772 61.0861 3.65882 15.6977 34.6817 -0.485108 -2.70858 -179.682 4.8777 93.1729 -21.6283 -8.14667 -3.4955 64.4929 4.97141 18.811 28.2461 0.295426 -1.69833 1.6381 7.12982 -90.4762 12.6348 3.02657 -1.30616 0.966619 2.96614 -1.43819 -21.5962 3.27907 -0.335291 -1.58353 3.27906 -0.335298 100.928 -60.6972 -83.8734 21.4759 -3.75414 -8.22975 -0.401099 -15.3154 -14.6475 -7.36913 -0.378923 0.863708 -81.3461 -56.9736 91.9618 -28.5078 -0.802942 -19.661 -2.52586 46.5051 -0.558861 1.20797 -0.0924108 -4.42996 -2.20977 1.56741 -3.19237 -13.0206 1.37718 7.21489 
-263.728 93.5298 251.848 94.1082 25.7683 91.0846 -170.218 -5.59074 91.8528 -4.74247 7.62382 -1.60661 61.7756 3.42035 14.0839 34.0835 -0.364559 -3.26157 -179.626 5.05496 93.1998 -21.6924 -6.21932 -3.57095 64.7479 5.13255 20.3712 27.0924 0.477994 -0.534226 1.66849 7.10876 -90.4494 12.6777 3.09952 -1.26314 1.00966 3.04092 -1.39843 -21.5547 3.33571 -0.272266 -1.54208 3.33569 -0.272273 101.716 -60.9462 -82.7922 21.6039 -3.62655 -8.17165 -0.319005 -15.1228 -14.5111 -7.70972 -0.395602 0.847093 -81.6563 -56.0113 91.4679 -29.7082 -0.991353 -19.758 -2.37674 47.5023 -0.196356 4.06504 -0.0800833 -4.3963 -0.435567 -0.0662454 -4.85765 -17.0481 -0.289276 7.79616 
-263.523 93.5 252.057 93.4798 26.1627 91.6461 -169.75 -4.39194 92.4253 -5.78759 8.34064 -1.81949 62.1976 3.61449 14.0433 34.1892 -0.364579 -3.46755 -179.463 5.45082 93.7049 -21.4625 -5.72161 -3.43675 64.6991 4.88551 19.9042 27.0195 0.472468 -0.313675 1.66536 7.06391 -90.3819 12.7658 3.12491 -1.13455 1.098 3.07192 -1.27108 -21.4671 3.32125 -0.14196 -1.45448 3.32125 -0.141964 102.821 -61.9498 -81.2873 21.0504 -4.05618 -8.52581 -0.284879 -15.3157 -14.6247 -7.85735 -0.426958 1.21892 -81.6384 -53.8664 91.3582 -31.453 -0.797514 -20.052 -2.32277 52.4934 0.0127337 -12.2535 0.239757 -8.0445 1.43985 -0.823379 -7.36432 -18.768 -0.87904 9.1305 
-263.432 93.4973 252.421 92.6983 26.3345 92.91 -168.946 -2.63527 93.6433 -7.2745 9.4882 -1.99042 62.6657 3.95942 14.2404 34.6647 -0.440439 -3.35301 -178.821 5.88891 94.9753 -20.6017 -4.93977 -3.42017 64.0737 4.77018 19.2268 27.1293 0.3706 0.382827 1.63974 6.99834 -90.4895 12.8984 3.02122 -1.3435 1.23013 2.95915 -1.47525 -21.3325 3.28516 -0.372526 -1.31981 3.28517 -0.37253 102.299 -61.5842 -81.994 21.3225 -3.90444 -8.34518 -0.497955 -15.0539 -15.0211 -7.5363 -0.376367 0.667702 -81.7454 -54.3982 91.2375 -30.7107 -0.221669 -20.0151 -2.60445 50.1887 -0.00646148 -4.40312 0.0193824 -6.41013 0.852566 0.180804 -6.58918 -18.2698 0.0594159 8.72155 
-263.433 93.4839 252.864 91.5404 26.4883 94.2205 -168.415 -0.123779 94.6359 -9.55108 9.51967 -2.06035 63.5841 4.26722 13.2868 34.909 -0.46176 -3.56072 -178.126 6.97835 96.1574 -20.1713 -3.62268 -3.48685 63.7898 4.94866 19.8669 26.74 0.594811 -0.788613 1.58862 6.89974 -90.5879 13.0963 2.87062 -1.52999 1.42749 2.80052 -1.6549 -21.1315 3.19762 -0.595805 -1.11884 3.19762 -0.595803 101.697 -61.1868 -82.8152 21.3854 -3.93861 -8.32576 -0.553246 -15.3171 -15.1639 -7.61804 -0.425051 1.40396 -81.7312 -55.177 91.3083 -30.1768 -1.23329 -20.3811 -2.00954 50.9524 -0.00470361 -11.8009 0.0750828 -6.37793 0.417089 0.309764 -5.57543 -17.5033 0.151322 8.08731 
-263.209 93.2996 253.196 90.4953 27.227 95.9843 -167.824 2.67962 96.061 -12.5227 11.0941 -2.01768 65.1663 5.07659 13.0464 34.7913 -0.529453 -2.24521 -177.293 8.19753 97.9896 -20.5063 -2.96364 -3.40634 63.3536 4.1146 17.3455 32.71 -0.921473 -0.932354 1.45701 6.83823 -90.785 13.2184 2.51317 -1.88495 1.54831 2.42776 -1.99375 -21.0021 2.96339 -1.04214 -0.989465 2.96337 -1.04215 101.079 -60.5488 -83.6697 21.7113 -3.86232 -8.34692 -0.591861 -15.1426 -15.2638 -7.33292 -0.427735 1.73252 -81.6911 -56.1803 91.4286 -29.071 -0.255198 -20.4203 -1.752 49.3122 -0.0105678 15.1669 -0.169945 -5.16593 0.970907 0.713438 -4.03259 -17.1259 0.428978 7.64385 
-262.681 93.2492 253.394 89.0779 28.477 97.3857 -167.785 4.52999 96.7821 -13.5252 12.9869 -1.77591 65.0705 5.78211 14.0052 37.2165 -0.872079 -1.79455 -177.205 9.17544 99.0311 -20.3573 -2.947 -2.85589 63.1266 3.04752 14.5237 38.9513 -2.5269 -1.30599 1.27564 6.75159 -90.8809 13.3887 2.10502 -2.03133 1.71775 2.01358 -2.12199 -20.8249 2.6181 -1.30468 -0.812271 2.61812 -1.30468 101.375 -60.6993 -83.2603 21.594 -4.08146 -8.15869 -0.67462 -15.5034 -15.5466 -8.09397 -0.533169 2.58087 -82.0133 -56.3109 90.9813 -28.3508 0.228206 -19.8999 -2.03008 49.4738 0.169337 21.4039 -0.00644814 -3.89259 1.01934 0.552446 -4.29892 -16.0197 0.295329 8.47061 
